HIERARCHY
ROOT Hips
{
	OFFSET -109.992104 92.699142 431.869385
	CHANNELS 6 Xposition Yposition Zposition Xrotation Yrotation Zrotation 
	JOINT RightUpLeg
	{
		OFFSET 0.103458 1.857831 10.548500
		CHANNELS 3 Xrotation Yrotation Zrotation
		JOINT RightLeg
		{
			OFFSET 43.500000 -0.000027 -0.000013
			CHANNELS 3 Xrotation Yrotation Zrotation
			JOINT RightFoot
			{
				OFFSET 42.372196 0.000031 0.000011
				CHANNELS 3 Xrotation Yrotation Zrotation
				JOINT RightToe
				{
					OFFSET 17.299994 -0.000003 -0.000004
					CHANNELS 3 Xrotation Yrotation Zrotation
					End Site
					{
						OFFSET 0.000000 0.000000 0.000000
					}
				}
			}
		}
	}
	JOINT LeftUpLeg
	{
		OFFSET 0.103455 1.857826 -10.548502
		CHANNELS 3 Xrotation Yrotation Zrotation
		JOINT LeftLeg
		{
			OFFSET 43.500038 -0.000023 0.000010
			CHANNELS 3 Xrotation Yrotation Zrotation
			JOINT LeftFoot
			{
				OFFSET 42.372261 0.000004 0.000006
				CHANNELS 3 Xrotation Yrotation Zrotation
				JOINT LeftToe
				{
					OFFSET 17.299988 -0.000008 0.000010
					CHANNELS 3 Xrotation Yrotation Zrotation
					End Site
					{
						OFFSET 0.000000 0.000000 0.000000
					}
				}
			}
		}
	}
	JOINT Spine
	{
		OFFSET 6.901968 -2.603722 -0.000004
		CHANNELS 3 Xrotation Yrotation Zrotation
		JOINT Spine1
		{
			OFFSET 12.588099 -0.000002 0.000005
			CHANNELS 3 Xrotation Yrotation Zrotation
			JOINT Spine2
			{
				OFFSET 12.343202 -0.000017 -0.000005
				CHANNELS 3 Xrotation Yrotation Zrotation
				JOINT Neck
				{
					OFFSET 25.832903 0.000008 0.000008
					CHANNELS 3 Xrotation Yrotation Zrotation
					JOINT Head
					{
						OFFSET 11.766607 0.000004 -0.000001
						CHANNELS 3 Xrotation Yrotation Zrotation
						End Site
						{
							OFFSET 0.000000 0.000000 0.000000
						}
					}
				}
				JOINT RightShoulder
				{
					OFFSET 19.745907 -1.480366 6.000107
					CHANNELS 3 Xrotation Yrotation Zrotation
					JOINT RightArm
					{
						OFFSET 11.284126 -0.000031 -0.000025
						CHANNELS 3 Xrotation Yrotation Zrotation
						JOINT RightForeArm
						{
							OFFSET 33.000050 0.000011 0.000029
							CHANNELS 3 Xrotation Yrotation Zrotation
							JOINT RightHand
							{
								OFFSET 25.200008 0.000009 0.000011
								CHANNELS 3 Xrotation Yrotation Zrotation
								End Site
								{
									OFFSET 0.000000 0.000000 0.000000
								}
							}
						}
					}
				}
				JOINT LeftShoulder
				{
					OFFSET 19.746094 -1.480364 -6.000070
					CHANNELS 3 Xrotation Yrotation Zrotation
					JOINT LeftArm
					{
						OFFSET 11.284145 -0.000017 -0.000020
						CHANNELS 3 Xrotation Yrotation Zrotation
						JOINT LeftForeArm
						{
							OFFSET 33.000088 0.000019 0.000022
							CHANNELS 3 Xrotation Yrotation Zrotation
							JOINT LeftHand
							{
								OFFSET 25.199780 0.000137 0.000414
								CHANNELS 3 Xrotation Yrotation Zrotation
								End Site
								{
									OFFSET 0.000000 0.000000 0.000000
								}
							}
						}
					}
				}
			}
		}
	}
}
MOTION
Frames: 5
Frame Time: 0.033333
68.933037 89.499489 -4.289789 84.490526 -4.192501 -88.776982 -169.709560 11.841089 176.993875 -19.707100 -2.849379 -13.066804 88.589418 8.724124 -1.953405 21.454555 0.003122 0.000016 151.704867 3.133689 -172.964924 -30.498304 -0.923152 0.592496 78.500600 1.519902 7.657981 21.454555 -0.003095 -0.000003 8.882964 -0.929286 -2.361606 7.789463 -1.697697 -4.780797 7.472405 -1.726645 -4.770502 20.196586 3.664291 -24.618211 -8.538317 8.945111 -28.051792 127.694457 -73.384830 52.080681 1.254474 49.545694 20.592973 -60.964390 -19.967530 2.508648 8.907024 -9.373064 23.232528 -176.827013 74.389646 4.623275 14.431565 -54.653056 -64.990165 -21.850588 13.565382 -1.005286 14.830714 4.585207 7.048407 
68.289337 88.917282 -8.252629 84.442066 -3.651135 -87.228032 -166.755667 11.736809 178.409609 -18.360424 -2.957238 -12.572141 89.033927 8.358829 -2.257847 21.454558 0.003102 0.000017 153.057627 3.247695 -170.998130 -18.652622 1.306883 0.934189 78.495519 2.086412 11.054901 21.454553 -0.003098 -0.000002 8.730472 -0.793429 -2.603465 7.481262 -1.417156 -5.253048 7.164506 -1.448941 -5.244427 19.746002 4.066216 -24.774942 -8.329333 8.747370 -28.056508 126.756345 -73.397814 53.028274 0.983130 49.773330 19.638228 -61.643256 -19.693466 2.516103 8.859163 -9.263846 23.248815 -175.424311 73.969979 6.056776 15.794655 -54.217652 -65.860734 -21.256015 13.344516 -0.983500 14.477745 4.315204 7.250285 
67.748596 88.143211 -12.280900 84.286426 -3.520869 -85.599974 -163.884269 11.227907 179.204220 -18.169598 -3.255961 -11.567294 89.542660 7.640338 -2.644411 21.454560 0.003105 0.000016 154.157479 3.433899 -169.210560 -11.831887 2.670651 0.879028 79.504379 2.786509 14.281859 21.454551 -0.003096 -0.000003 8.689934 -0.684344 -2.816403 7.396896 -1.187582 -5.670953 7.080420 -1.221885 -5.663712 19.134894 4.408461 -24.856838 -8.294957 8.517944 -27.982298 125.896314 -73.518374 53.886890 0.251996 50.354450 19.104408 -61.435380 -19.564829 2.499051 8.741868 -9.638031 22.644162 -174.162406 73.919811 7.351898 16.374803 -54.494186 -66.516187 -20.435885 13.084099 -0.956726 14.503878 4.730894 7.409114 
67.303818 87.268402 -16.129080 84.591312 -3.404539 -84.526009 -162.195054 10.205011 179.414753 -19.911470 -3.603440 -10.536625 90.140411 6.892019 -3.183356 21.454558 0.003111 0.000017 153.840066 2.720894 -168.118481 -14.098776 2.060154 0.991380 79.153737 2.817137 14.525695 21.454551 -0.003085 0.000006 8.649913 -0.475464 -2.877973 7.306616 -0.768590 -5.780246 6.990255 -0.803565 -5.775516 18.411209 4.572240 -24.549436 -8.384176 8.050159 -27.452806 126.136969 -73.620580 53.634528 -0.593930 51.072917 19.344195 -60.444353 -19.539459 2.458866 8.979873 -10.031744 22.757284 -173.724564 73.623545 7.798438 15.983396 -54.564814 -65.435152 -20.030945 12.803254 -0.933985 14.970578 4.470374 7.107868 
66.929543 86.595734 -20.149549 85.331452 -3.497098 -83.733038 -160.883658 8.573696 178.653980 -22.479136 -3.783314 -9.118721 89.218246 5.798978 -4.100546 21.454562 0.003105 0.000018 153.878165 1.673001 -167.836586 -18.775502 1.368680 0.913371 76.527372 2.331040 11.213659 21.454550 -0.003094 0.000002 8.576587 -0.172617 -2.854291 7.144609 -0.169044 -5.713697 6.828236 -0.203619 -5.712587 18.393942 4.409418 -23.693544 -8.777214 7.841799 -26.561538 127.009731 -73.387814 52.772879 -0.636392 52.048514 21.176255 -58.679624 -20.054538 2.427013 9.301860 -9.733891 22.154690 -174.552997 73.234764 6.942809 14.839819 -54.593251 -64.575928 -19.484184 12.782599 -0.926354 14.810625 4.406904 8.177169 
